<svg width="60" height="60" viewBox="0 0 60 60" fill="none" xmlns="http://www.w3.org/2000/svg">
<rect width="60" height="60" fill="#261401"/>
<path d="M30 14.0742C32.7442 14.0742 34.9688 16.2988 34.9688 19.043V23.9033L38.4189 20.4531C40.3594 18.5129 43.5049 18.5128 45.4453 20.4531C47.3857 22.3935 47.3856 25.5391 45.4453 27.4795L41.626 31.2998H46.875C49.6192 31.2998 51.8438 33.5244 51.8438 36.2686C51.8435 39.0125 49.619 41.2373 46.875 41.2373H13.125C10.381 41.2373 8.15647 39.0125 8.15625 36.2686C8.15625 33.5244 10.3808 31.2998 13.125 31.2998H18.3506L14.5303 27.4795C12.5903 25.5392 12.5903 22.3935 14.5303 20.4531C16.4707 18.5127 19.6172 18.5127 21.5576 20.4531L25.0312 23.9268V19.043C25.0312 16.2988 27.2558 14.0742 30 14.0742Z" fill="url(#paint0_linear_2036_70)" stroke="#462502" stroke-width="1.5" stroke-linecap="round"/>
<defs>
<linearGradient id="paint0_linear_2036_70" x1="30" y1="24.4294" x2="30" y2="44.3931" gradientUnits="userSpaceOnUse">
<stop stop-color="#FB8300"/>
<stop offset="1" stop-color="#DC5700"/>
</linearGradient>
</defs>
</svg>
