<svg width="128" height="128" viewBox="0 0 128 128" fill="none" xmlns="http://www.w3.org/2000/svg">
<path fill-rule="evenodd" clip-rule="evenodd" d="M52.8 58.9721V41.2C52.8 35.0144 57.8144 30 64 30C70.1856 30 75.2 35.0144 75.2 41.2V58.9092L87.7577 46.3514C92.1316 41.9776 99.2231 41.9776 103.597 46.3514C107.971 50.7253 107.971 57.8167 103.597 62.1906L90.0579 75.7297H108.8C114.986 75.7297 120 80.7441 120 86.9297C120 93.1153 114.986 98.1297 108.8 98.1297H19.2C13.0144 98.1297 8 93.1153 8 86.9297C8 80.7441 13.0144 75.7297 19.2 75.7297H37.8792L24.3398 62.1902C19.9659 57.8164 19.9659 50.7249 24.3398 46.351C28.7137 41.9772 35.8051 41.9772 40.179 46.351L52.8 58.9721Z" fill="#FFAE00"/>
</svg>
