<svg xmlns="http://www.w3.org/2000/svg" width="220" height="38" fill="none"><path fill="url(#a)" fill-rule="evenodd" d="M25.3687 16.1595V6.24691C25.3687 2.79684 28.2082 0 31.7108 0c3.5027 0 6.3422 2.79684 6.3422 6.24691v9.87749l7.111-7.00423c2.4768-2.43957 6.4924-2.43957 8.9692 0 2.4768 2.43953 2.4768 6.39493 0 8.83443l-7.6667 7.5516h10.613c3.5027 0 6.3422 2.7968 6.3422 6.2469S60.5822 38 57.0795 38H6.34217C2.83949 38 0 35.2032 0 31.7531s2.83949-6.2469 6.34217-6.2469H16.9196l-7.66696-7.5518c-2.47677-2.4396-2.47677-6.3949 0-8.83445 2.47676-2.43957 6.49246-2.43957 8.96916 0l7.1469 7.03955Z" clip-rule="evenodd"/><path fill="#000" d="M213.806 8.08891c-1.211 0-2.243-.37009-3.098-1.11026-.819-.77542-1.228-1.7447-1.228-2.90783 0-1.19838.409-2.16765 1.228-2.90782.855-.740178 1.887-1.1102656 3.098-1.1102656 1.211 0 2.225.3700876 3.044 1.1102656.819.74017 1.229 1.70944 1.229 2.90782 0 1.16313-.41 2.13241-1.229 2.90783-.819.74017-1.833 1.11026-3.044 1.11026Zm-6.302 28.97249v-.5287l.748-.2114c.712-.2115 1.192-.5287 1.442-.9517.284-.423.427-.9869.427-1.6918V17.1296c0-.7402-.143-1.2865-.427-1.6389-.25-.3878-.73-.6521-1.442-.7931l-.748-.1586v-.5287l9.774-3.1193.534.5287-.161 7.5075v14.8034c0 .705.125 1.2689.374 1.6919.285.4229.766.7401 1.442.9516l.534.1586v.5287h-12.497ZM198.837 8.08891c-1.21 0-2.243-.37009-3.097-1.11026-.819-.77542-1.229-1.7447-1.229-2.90783 0-1.19838.41-2.16765 1.229-2.90782.854-.740178 1.887-1.1102656 3.097-1.1102656 1.211 0 2.226.3700876 3.045 1.1102656.818.74017 1.228 1.70944 1.228 2.90782 0 1.16313-.41 2.13241-1.228 2.90783-.819.74017-1.834 1.11026-3.045 1.11026Zm-6.302 28.97249v-.5287l.748-.2114c.712-.2115 1.193-.5287 1.442-.9517.285-.423.427-.9869.427-1.6918V17.1296c0-.7402-.142-1.2865-.427-1.6389-.249-.3878-.73-.6521-1.442-.7931l-.748-.1586v-.5287l9.774-3.1193.534.5287-.16 7.5075v14.8034c0 .705.124 1.2689.373 1.6919.285.4229.766.7401 1.442.9516l.535.1586v.5287h-12.498ZM173.083 37.8536c-2.1 0-3.987-.4582-5.661-1.3746-1.673-.9516-3.008-2.3967-4.005-4.3353-.962-1.9738-1.442-4.4939-1.442-7.5603 0-3.1017.551-5.6571 1.655-7.6661 1.104-2.0443 2.564-3.5599 4.38-4.5468 1.816-1.0221 3.792-1.5332 5.928-1.5332 1.246 0 2.439.1233 3.578.3701 1.14.2467 2.154.6168 3.044 1.1102V5.44459c0-.74017-.124-1.28649-.373-1.63896-.214-.35246-.695-.59919-1.442-.74017l-1.015-.21148v-.52869l9.72-2.32626656.588.47582656-.214 7.40174V33.7298c0 .7049.125 1.2865.374 1.7447.249.423.712.7226 1.388.8988l.481.1586v.5287l-9.133.5816-.48-1.9033c-.962.6344-2.065 1.1455-3.312 1.5332-1.21.3877-2.563.5815-4.059.5815Zm3.098-1.9561c1.495 0 2.866-.4406 4.112-1.3218V13.5865c-1.317-.8459-2.67-1.2689-4.059-1.2689-1.709 0-3.168.9869-4.379 2.9607-1.211 1.9386-1.816 5.005-1.816 9.1993 0 4.1944.57 7.1551 1.709 8.8821 1.14 1.6918 2.617 2.5378 4.433 2.5378ZM141.916 37.8542c-2.065 0-3.809-.5815-5.233-1.7447-1.389-1.1631-2.083-2.8373-2.083-5.0226 0-1.6565.854-3.1721 2.563-4.5467 1.709-1.4099 4.397-2.4673 8.065-3.1722.569-.1058 1.21-.2115 1.922-.3172.713-.141 1.46-.282 2.244-.423v-4.1767c0-2.3967-.303-4.0709-.908-5.0226-.57-.9869-1.478-1.4803-2.724-1.4803-.855 0-1.531.2819-2.03.8459-.498.5287-.819 1.4627-.961 2.8021l-.107.5815c-.071 1.5156-.445 2.6259-1.121 3.3308-.677.7049-1.514 1.0574-2.511 1.0574-.925 0-1.691-.282-2.296-.8459-.605-.564-.908-1.3218-.908-2.2734 0-1.4451.498-2.6611 1.495-3.648 1.033-.9869 2.386-1.7271 4.059-2.2205 1.674-.4935 3.49-.7402 5.448-.7402 3.169 0 5.608.7754 7.317 2.3263 1.744 1.5155 2.617 4.0004 2.617 7.4546v11.6841c0 1.5861.748 2.3792 2.243 2.3792h1.175l.481.4229c-.677.8459-1.425 1.498-2.244 1.9562-.783.4582-1.904.6873-3.364.6873-1.567 0-2.813-.3525-3.739-1.0574-.89-.7402-1.477-1.7094-1.762-2.9078-1.068 1.1279-2.172 2.0971-3.312 2.9078-1.103.7754-2.545 1.1631-4.326 1.1631Zm3.258-3.225c.712 0 1.371-.1586 1.976-.4758.641-.3525 1.389-.8812 2.244-1.5861v-8.8821c-.357.0705-.713.141-1.069.2115-.356.0705-.765.141-1.228.2115-1.638.4229-2.955 1.1455-3.952 2.1676-.961.9869-1.442 2.3263-1.442 4.0181 0 1.4451.338 2.5377 1.015 3.2779.676.7049 1.495 1.0574 2.456 1.0574ZM120.662 10.8379c2.315 0 4.291.4758 5.929 1.4275 1.638.9164 2.884 2.1852 3.738 3.8066.89 1.5861 1.335 3.4013 1.335 5.4455 0 .3878-.017.7931-.053 1.216-.036.3878-.107.7402-.214 1.0574h-15.915c.035 3.8066.712 6.5559 2.029 8.2477 1.353 1.6566 3.347 2.4849 5.982 2.4849 1.78 0 3.222-.282 4.326-.846 1.104-.5639 2.136-1.3922 3.098-2.4848l.534.4758c-1.104 1.9386-2.582 3.4541-4.433 4.5468-1.816 1.0926-4.006 1.6389-6.569 1.6389-2.528 0-4.771-.5287-6.73-1.586-1.958-1.0927-3.489-2.6435-4.593-4.6526-1.103-2.009-1.655-4.4058-1.655-7.1902 0-2.8902.641-5.3399 1.922-7.3489 1.282-2.0443 2.92-3.5951 4.914-4.6525 2.029-1.0574 4.148-1.5861 6.355-1.5861Zm-.16 1.0574c-1.032 0-1.922.3172-2.67.9516-.712.5992-1.282 1.6919-1.709 3.2779-.392 1.5509-.606 3.7538-.641 6.6087h9.133c.356-3.8418.213-6.6087-.428-8.3005-.641-1.6918-1.869-2.5377-3.685-2.5377ZM84.5176 37.0612v-.5287l.8011-.2115c.7121-.2115 1.1928-.5287 1.442-.9516.2848-.423.4273-.9693.4273-1.639V17.1822c0-.7754-.1425-1.3393-.4273-1.6918-.2492-.3877-.7299-.652-1.442-.793l-.8011-.2115v-.5287l9.1861-3.0664.5341.5287.4807 4.5467v.423c.4984-.9869 1.1393-1.8857 1.9226-2.6964.819-.8459 1.7091-1.5332 2.6704-2.0619.9965-.5287 1.9765-.793 2.9375-.793 1.353 0 2.385.3701 3.098 1.1103.712.7401 1.068 1.6742 1.068 2.802 0 1.1984-.356 2.1324-1.068 2.8021-.677.6345-1.496.9517-2.457.9517-1.496 0-2.813-.7402-3.9523-2.2205l-.1068-.1058c-.3561-.4934-.7656-.7578-1.2284-.793-.4629-.0705-.8902.141-1.2818.6344-.3561.3172-.6587.7049-.9079 1.1631-.2137.423-.4273.9164-.6409 1.4804v14.7506c0 1.4099.6231 2.291 1.8692 2.6435l1.7091.4758v.5287H84.5176Z"/><defs><linearGradient id="a" x1="31.7108" x2="31.7108" y1="0" y2="38" gradientUnits="userSpaceOnUse"><stop stop-color="#FFAE00"/><stop offset="1" stop-color="#DC5700"/></linearGradient></defs></svg>